<svg width="2500" height="833" viewBox="0 0 2500 833" fill="none" xmlns="http://www.w3.org/2000/svg">
<path d="M1634.44 21.6192C1627.42 21.6224 1620.48 23.0081 1614 25.6973C1607.52 28.3864 1601.63 32.3262 1596.68 37.2913C1586.88 47.0864 1581.01 60.9219 1581.01 75.1248V720.938C1581.01 735.141 1586.64 748.732 1596.68 758.772C1601.64 763.736 1607.53 767.675 1614.01 770.362C1620.49 773.049 1627.44 774.432 1634.45 774.432C1641.47 774.432 1648.42 773.049 1654.9 770.362C1661.38 767.675 1667.27 763.736 1672.22 758.772C1682.02 748.977 1687.9 735.141 1687.9 720.938V75.1003C1687.9 60.8974 1682.26 47.3068 1672.22 37.2668C1667.27 32.2987 1661.38 28.3573 1654.89 25.6681C1648.41 22.9789 1641.46 21.6191 1634.44 21.6192ZM820.42 249.257C820.42 219.725 796.495 195.776 767.037 195.776C737.578 195.776 713.654 219.725 713.654 249.257V720.89C713.654 750.422 737.578 774.371 767.037 774.371C796.495 774.371 820.42 750.422 820.42 720.89V249.257Z" fill="white"/>
<path d="M835.504 75.1982C835.157 93.1403 827.79 110.231 814.984 122.802C802.183 135.359 784.968 142.393 767.037 142.393C749.106 142.393 731.89 135.359 719.09 122.802C706.283 110.231 698.916 93.1403 698.569 75.1982C698.561 57.0166 705.775 39.5762 718.625 26.7126C724.974 20.3444 732.517 15.2918 740.822 11.8442C749.128 8.39672 758.032 6.6221 767.024 6.6221C776.017 6.6221 784.921 8.39672 793.226 11.8442C801.532 15.2918 809.075 20.3444 815.424 26.7126C828.274 39.5762 835.512 57.0166 835.504 75.1982Z" fill="#00AEEF"/>
<path d="M1484.48 366.455C1433.15 250.236 1311.72 168.105 1173.16 182.307C1126.45 187.245 1081.52 202.935 1041.89 228.148C1002.24 253.378 968.966 287.439 944.67 327.666C920.365 367.916 905.69 413.238 901.792 460.096C897.874 506.965 904.878 554.128 922.191 597.814C939.5 641.513 966.679 680.618 1001.6 712.074C1036.52 743.506 1078.23 766.436 1123.48 779.072C1168.72 791.703 1216.27 793.677 1262.41 784.84C1308.54 776.003 1352 756.594 1389.37 728.138C1395.65 723.316 1400.78 717.15 1404.38 710.09C1407.98 703.038 1409.96 695.251 1410.16 687.317C1410.56 673.247 1405.36 659.592 1395.71 649.35C1386.05 639.107 1372.73 633.114 1358.66 632.685C1346.57 632.297 1334.71 636.066 1325.06 643.362C1288.08 671.924 1242.1 686.324 1195.42 683.962C1157.52 682.027 1120.97 669.235 1090.13 647.108C1059.15 625.012 1035.12 594.542 1020.85 559.271C1018.91 554.516 1018.79 549.209 1020.52 544.372C1022.25 539.535 1025.71 535.509 1030.23 533.069C1033.23 531.46 1036.58 530.618 1039.98 530.62H1410.84C1428.71 530.694 1446.2 525.45 1461.08 515.556C1475.95 505.662 1487.55 491.564 1494.39 475.058C1498.95 464.099 1501.31 452.35 1501.32 440.481C1500.58 415.005 1494.97 389.905 1484.82 366.528L1484.48 366.455ZM1204.7 286.821C1244.41 286.831 1283.2 298.756 1316.05 321.055C1348.92 343.379 1374.34 375.052 1389.02 411.977C1390.26 415.127 1390.73 418.529 1390.37 421.895C1390 425.258 1388.82 428.481 1386.93 431.285C1385.03 434.088 1382.48 436.387 1379.5 437.983C1376.52 439.582 1373.19 440.423 1369.8 440.432H1039.58C1036.2 440.436 1032.87 439.595 1029.89 437.983C1026.9 436.367 1024.35 434.065 1022.44 431.298C1020.53 428.531 1019.36 425.274 1019.01 421.895C1018.66 418.529 1019.12 415.127 1020.36 411.977C1035.04 375.052 1060.46 343.379 1093.33 321.055C1126.24 298.868 1165.02 286.953 1204.7 286.821ZM2072.13 684.158C2034.07 684.167 1996.8 673.208 1964.8 652.593C1932.77 631.895 1907.29 602.508 1891.34 567.866C1875.56 533.18 1870.07 494.689 1875.55 456.975C1881.02 419.262 1897.21 383.915 1922.19 355.141L1841.38 286.16C1815.22 316.545 1795.33 351.807 1782.86 389.914C1770.36 428.023 1765.49 468.222 1768.53 508.214C1771.57 548.202 1782.49 587.211 1800.37 622.988C1818.49 658.748 1843.5 690.578 1873.95 716.653C1904.39 742.722 1939.67 762.527 1977.78 774.934C2015.88 787.339 2056.05 792.082 2095.98 788.892C2135.93 785.704 2174.84 774.634 2210.49 756.323C2246.15 738.029 2277.85 712.873 2303.76 682.297L2222.95 613.34C2204.36 635.529 2181.12 653.368 2154.88 665.596C2128.65 677.832 2100.06 684.16 2071.13 684.134L2072.13 684.158Z" fill="white"/>
<path d="M2072.13 180.495C2028.44 180.441 1985.25 189.839 1945.53 208.044C1905.78 226.253 1870.43 252.832 1841.9 285.964L1922.46 354.946C1956.78 315.399 2005.34 291.029 2057.56 287.152C2109.77 283.276 2161.4 300.207 2201.18 334.253C2240.97 368.357 2265.7 416.782 2269.99 469.009C2274.26 521.245 2257.73 573.054 2224 613.168L2304.57 682.125C2342.06 637.736 2366.1 583.571 2373.87 525.992C2381.63 468.398 2372.77 409.786 2348.35 357.051C2323.94 304.341 2284.97 259.709 2236.03 228.418C2187.04 197.242 2130.2 180.623 2072.13 180.495Z" fill="#00AEEF"/>
<path d="M615.213 645.761C606.009 637.782 594.352 633.191 582.178 632.75C570.004 632.309 558.046 636.045 548.288 643.337C518.922 665.811 483.854 679.62 447.049 683.203C410.244 686.786 373.17 680.001 340.021 663.613C306.867 647.197 278.944 621.868 259.383 590.468C239.825 559.035 229.43 522.767 229.37 485.746C229.309 448.726 239.585 412.423 259.04 380.927C278.479 349.454 306.323 324.036 339.433 307.537C372.526 291.023 409.584 284.107 446.406 287.574C483.229 291.041 518.344 304.751 547.774 327.152C557.419 334.586 569.324 338.482 581.498 338.188C593.672 337.894 605.375 333.427 614.65 325.536C620.649 320.393 625.424 314.027 628.608 306.852C631.791 299.677 633.407 291.841 633.261 283.956C633.114 276.071 631.155 268.333 627.628 261.305C624.102 254.277 619.009 248.081 612.813 243.282C567.7 208.748 513.816 187.54 457.268 182.063C400.698 176.566 343.72 187.044 292.807 212.305C241.894 237.567 199.085 276.601 169.243 324.973C139.357 373.349 123.574 429.11 123.674 485.974C123.773 542.837 139.751 598.543 169.807 646.814C199.854 695.035 242.802 733.881 293.788 758.952C344.774 784.023 401.761 794.318 458.296 788.671C514.82 783.004 568.628 761.618 613.621 726.938C619.737 722.142 624.709 716.047 628.177 709.092C631.646 702.138 633.525 694.499 633.677 686.729C633.833 678.961 632.259 671.255 629.07 664.169C625.881 657.083 621.156 650.796 615.238 645.761H615.213Z" fill="white"/>
</svg>
