<svg width="609" height="610" viewBox="0 0 609 610" fill="none" xmlns="http://www.w3.org/2000/svg">
<path d="M304.48 503.663C266.414 503.672 229.151 492.713 197.15 472.098C165.118 451.4 139.637 422.013 123.687 387.371C107.905 352.685 102.423 314.194 107.893 276.48C113.363 238.767 129.555 203.419 154.542 174.646L73.7325 105.665C47.5702 136.05 27.6797 171.312 15.207 209.419C2.70309 247.527 -2.16504 287.727 0.881521 327.719C3.91799 367.707 14.8396 406.716 32.7156 442.493C50.8416 478.253 75.8479 510.083 106.301 536.158C136.739 562.226 172.023 582.032 210.129 594.439C248.223 606.844 288.395 611.587 328.331 608.397C368.275 605.209 407.192 594.139 442.835 575.828C478.497 557.534 510.195 532.378 536.109 501.802L455.299 432.845C436.704 455.034 413.466 472.873 387.224 485.101C361.002 497.337 332.412 503.665 303.476 503.638L304.48 503.663Z" fill="#5A646E"/>
<path d="M304.479 0.000229778C260.786 -0.0535801 217.598 9.34419 177.878 27.5489C138.127 45.7581 102.777 72.3372 74.2461 105.469L154.811 174.451C189.126 134.904 237.69 110.534 289.905 106.657C342.121 102.781 393.75 119.712 433.529 153.758C473.317 187.862 498.044 236.286 502.34 288.514C506.608 340.75 490.081 392.559 456.352 432.673L536.916 501.63C574.404 457.241 598.446 403.076 606.217 345.497C613.973 287.903 605.121 229.291 580.7 176.556C556.289 123.846 517.316 79.214 468.375 47.9226C419.385 16.7472 362.548 0.128185 304.479 0.000229778Z" fill="#00AEEF"/>
</svg>
